<svg width="15" height="9" fill="none" xmlns="http://www.w3.org/2000/svg"><path fill-rule="evenodd" clip-rule="evenodd" d="M7.585 8.824h.863s.26-.028.394-.172c.122-.132.119-.379.119-.379s-.017-1.158.52-1.33c.53-.167 1.211 1.12 1.932 1.616.546.374.96.292.96.292l1.93-.027s1.008-.062.53-.855c-.04-.065-.279-.587-1.434-1.66-1.21-1.122-1.048-.94.41-2.882.886-1.183 1.241-1.905 1.13-2.214-.105-.295-.758-.217-.758-.217l-2.172.014s-.16-.022-.28.049c-.117.07-.192.233-.192.233s-.344.915-.802 1.694C9.768 4.628 9.38 4.714 9.223 4.612c-.368-.237-.276-.954-.276-1.464 0-1.591.242-2.255-.47-2.426C8.241.664 8.067.627 7.464.62 6.689.613 6.033.623 5.66.805c-.247.121-.437.39-.321.406.143.02.468.088.64.323.223.302.216.982.216.982s.127 1.874-.3 2.106c-.292.16-.693-.166-1.556-1.656a13.85 13.85 0 01-.775-1.606s-.064-.158-.179-.242a.9.9 0 00-.334-.135L.99.996s-.31.01-.424.144c-.101.12-.008.367-.008.367s1.616 3.78 3.445 5.686C5.68 8.939 7.585 8.824 7.585 8.824z" fill="#FFFDFB"/></svg>